<svg width="1920" height="1080" viewBox="0 0 1920 1080" fill="none" xmlns="http://www.w3.org/2000/svg">
<rect width="1920" height="1080" fill="url(#paint0_linear)"/>
<circle cx="446.704" cy="446.704" r="446.704" transform="matrix(-1 0 0 1 814.407 -408)" stroke="white" stroke-opacity="0.2" stroke-width="1.04558"/>
<rect x="836.464" y="986.944" width="21.9916" height="21.9916" fill="white" fill-opacity="0.2"/>
<rect x="1707.88" y="562.404" width="21.9916" height="21.9916" fill="white" fill-opacity="0.2"/>
<rect x="1707.88" y="540.241" width="21.9916" height="21.9916" fill="white" fill-opacity="0.2"/>
<rect x="385.849" y="275.771" width="158.995" height="158.995" stroke="white" stroke-opacity="0.07" stroke-width="1.54364"/>
<rect x="391.773" y="511.765" width="158.995" height="158.995" stroke="white" stroke-opacity="0.07" stroke-width="1.54364"/>
<rect x="391.773" y="670.759" width="158.995" height="158.995" stroke="white" stroke-opacity="0.07" stroke-width="1.54364"/>
<rect x="391.773" y="829.754" width="158.995" height="158.995" stroke="white" stroke-opacity="0.07" stroke-width="1.54364"/>
<rect x="391.773" y="988.745" width="158.995" height="158.995" stroke="url(#paint1_linear)" stroke-width="1.54364"/>
<rect x="550.774" y="511.765" width="158.995" height="158.995" stroke="white" stroke-opacity="0.07" stroke-width="1.54364"/>
<rect x="550.774" y="670.759" width="158.995" height="158.995" stroke="white" stroke-opacity="0.1" stroke-width="1.54364"/>
<rect x="550.774" y="829.754" width="158.995" height="158.995" stroke="white" stroke-opacity="0.1" stroke-width="1.54364"/>
<rect x="550.774" y="988.745" width="158.995" height="158.995" stroke="white" stroke-opacity="0.05" stroke-width="1.54364"/>
<rect x="709.758" y="670.759" width="158.995" height="158.995" stroke="url(#paint2_linear)" stroke-width="1.54364"/>
<rect x="709.758" y="829.754" width="158.995" height="158.995" stroke="white" stroke-opacity="0.1" stroke-width="1.54364"/>
<rect x="709.758" y="988.745" width="158.995" height="158.995" stroke="white" stroke-opacity="0.05" stroke-width="1.54364"/>
<rect x="868.755" y="670.759" width="158.995" height="158.995" stroke="white" stroke-opacity="0.1" stroke-width="1.54364"/>
<rect x="868.755" y="829.754" width="158.995" height="158.995" stroke="white" stroke-opacity="0.1" stroke-width="1.54364"/>
<rect x="868.755" y="988.745" width="158.995" height="158.995" stroke="white" stroke-opacity="0.05" stroke-width="1.54364"/>
<rect x="1027.76" y="670.759" width="158.995" height="158.995" stroke="white" stroke-opacity="0.1" stroke-width="1.54364"/>
<rect x="1027.76" y="829.754" width="158.995" height="158.995" stroke="white" stroke-opacity="0.1" stroke-width="1.54364"/>
<rect x="1027.76" y="988.745" width="158.995" height="158.995" stroke="white" stroke-opacity="0.05" stroke-width="1.54364"/>
<rect x="1186.75" y="670.759" width="158.995" height="158.995" stroke="url(#paint3_linear)" stroke-width="1.54364"/>
<rect x="1186.75" y="829.754" width="158.995" height="158.995" stroke="white" stroke-opacity="0.1" stroke-width="1.54364"/>
<rect x="1186.75" y="988.745" width="158.995" height="158.995" stroke="white" stroke-opacity="0.05" stroke-width="1.54364"/>
<rect x="1345.74" y="670.759" width="158.995" height="158.995" stroke="url(#paint4_linear)" stroke-width="1.54364"/>
<rect x="1345.74" y="829.754" width="158.995" height="158.995" stroke="url(#paint5_linear)" stroke-width="1.54364"/>
<rect x="1345.74" y="988.745" width="158.995" height="158.995" stroke="url(#paint6_linear)" stroke-width="1.54364"/>
<rect x="1504.74" y="352.767" width="158.995" height="158.995" stroke="white" stroke-opacity="0.1" stroke-width="1.54364"/>
<rect x="1504.74" y="511.765" width="158.995" height="158.995" stroke="white" stroke-opacity="0.1" stroke-width="1.54364"/>
<rect x="1504.74" y="670.759" width="158.995" height="158.995" stroke="white" stroke-opacity="0.1" stroke-width="1.54364"/>
<rect x="1504.74" y="829.754" width="158.995" height="158.995" stroke="white" stroke-opacity="0.1" stroke-width="1.54364"/>
<rect x="1504.74" y="988.745" width="158.995" height="158.995" stroke="url(#paint7_linear)" stroke-width="1.54364"/>
<rect x="1663.73" y="511.765" width="158.995" height="158.995" stroke="white" stroke-opacity="0.1" stroke-width="1.54364"/>
<rect x="1663.73" y="670.759" width="158.995" height="158.995" stroke="white" stroke-opacity="0.1" stroke-width="1.54364"/>
<rect x="1663.73" y="829.754" width="158.995" height="158.995" stroke="white" stroke-opacity="0.1" stroke-width="1.54364"/>
<rect x="1663.73" y="988.745" width="158.995" height="158.995" stroke="white" stroke-opacity="0.07" stroke-width="1.54364"/>
<rect x="1838.86" y="352.767" width="158.995" height="158.995" stroke="url(#paint8_linear)" stroke-width="1.54364"/>
<rect x="1838.86" y="511.765" width="158.995" height="158.995" stroke="white" stroke-opacity="0.1" stroke-width="1.54364"/>
<rect x="1838.86" y="670.759" width="158.995" height="158.995" stroke="white" stroke-opacity="0.1" stroke-width="1.54364"/>
<rect x="1838.86" y="829.754" width="158.995" height="158.995" stroke="white" stroke-opacity="0.1" stroke-width="1.54364"/>
<rect x="1838.86" y="988.745" width="158.995" height="158.995" stroke="white" stroke-opacity="0.07" stroke-width="1.54364"/>
<defs>
<linearGradient id="paint0_linear" x1="399.5" y1="98.5" x2="1579.5" y2="1930" gradientUnits="userSpaceOnUse">
<stop offset="0.317308" stop-color="#0E1423"/>
<stop offset="1" stop-color="#DC2626"/>
</linearGradient>
<linearGradient id="paint1_linear" x1="296.067" y1="1196.36" x2="438.854" y2="1087.54" gradientUnits="userSpaceOnUse">
<stop stop-color="white"/>
<stop offset="1" stop-color="white" stop-opacity="0"/>
</linearGradient>
<linearGradient id="paint2_linear" x1="999.19" y1="609.014" x2="789.256" y2="750.256" gradientUnits="userSpaceOnUse">
<stop stop-color="white"/>
<stop offset="1" stop-color="white" stop-opacity="0"/>
</linearGradient>
<linearGradient id="paint3_linear" x1="1362.73" y1="715.525" x2="1338.8" y2="715.525" gradientUnits="userSpaceOnUse">
<stop stop-color="white"/>
<stop offset="1" stop-color="white" stop-opacity="0"/>
</linearGradient>
<linearGradient id="paint4_linear" x1="1041.64" y1="551.899" x2="1374.29" y2="750.256" gradientUnits="userSpaceOnUse">
<stop stop-color="white"/>
<stop offset="1" stop-color="white" stop-opacity="0"/>
</linearGradient>
<linearGradient id="paint5_linear" x1="1505.5" y1="1010.36" x2="1425.24" y2="989.521" gradientUnits="userSpaceOnUse">
<stop stop-color="white"/>
<stop offset="1" stop-color="white" stop-opacity="0"/>
</linearGradient>
<linearGradient id="paint6_linear" x1="1529.43" y1="958.644" x2="1453.79" y2="1074.42" gradientUnits="userSpaceOnUse">
<stop stop-color="white"/>
<stop offset="1" stop-color="white" stop-opacity="0"/>
</linearGradient>
<linearGradient id="paint7_linear" x1="1473.86" y1="962.504" x2="1572.66" y2="1089.85" gradientUnits="userSpaceOnUse">
<stop stop-color="white"/>
<stop offset="1" stop-color="white" stop-opacity="0"/>
</linearGradient>
<linearGradient id="paint8_linear" x1="1918.36" y1="351.995" x2="1918.36" y2="512.533" gradientUnits="userSpaceOnUse">
<stop stop-color="white" stop-opacity="0"/>
<stop offset="1" stop-color="white"/>
</linearGradient>
</defs>
</svg>
